<svg xmlns="http://www.w3.org/2000/svg" width="400" height="220" viewBox="0 0 400 220"><defs><linearGradient id="g" x1="0" y1="0" x2="1" y2="1"><stop stop-color="#64D45D"/><stop offset="1" stop-color="#205C22"/></linearGradient><filter id="b"><feGaussianBlur stdDeviation="18"/></filter></defs><rect width="400" height="220" rx="36" fill="url(#g)"/><circle cx="330" cy="30" r="70" fill="white" fill-opacity=".10" filter="url(#b)"/><path d="M0 180C80 140 125 210 205 171S325 116 400 152V220H0Z" fill="#000" fill-opacity=".18"/><path d="M136 137c23-53 46-79 78-82 34-3 57 25 62 80-35-15-62-11-76 14-14-25-36-29-64-12Z" fill="white" fill-opacity=".16" stroke="white" stroke-width="8"/><path d="M173 101h49" stroke="white" stroke-width="8" stroke-linecap="round"/><circle cx="328" cy="164" r="34" fill="none" stroke="white" stroke-opacity=".18" stroke-width="8"/><circle cx="328" cy="164" r="9" fill="white" fill-opacity=".8"/></svg>