<svg xmlns="http://www.w3.org/2000/svg" width="400" height="220" viewBox="0 0 400 220"><defs><linearGradient id="g" x1="0" y1="0" x2="1" y2="1"><stop stop-color="#2AC7A6"/><stop offset="1" stop-color="#0E554A"/></linearGradient><filter id="b"><feGaussianBlur stdDeviation="18"/></filter></defs><rect width="400" height="220" rx="36" fill="url(#g)"/><circle cx="330" cy="30" r="70" fill="white" fill-opacity=".10" filter="url(#b)"/><path d="M0 180C80 140 125 210 205 171S325 116 400 152V220H0Z" fill="#000" fill-opacity=".18"/><circle cx="202" cy="103" r="57" fill="none" stroke="white" stroke-width="8"/><path d="M202 47c30 21 42 43 36 67-6 24-24 39-54 46 14-24 13-45-5-62 18-8 25-25 23-51Z" fill="white" fill-opacity=".18"/><circle cx="202" cy="103" r="12" fill="white"/><circle cx="328" cy="164" r="34" fill="none" stroke="white" stroke-opacity=".18" stroke-width="8"/><circle cx="328" cy="164" r="9" fill="white" fill-opacity=".8"/></svg>